<svg width="24" height="24" viewBox="0 0 24 24" fill="none" xmlns="http://www.w3.org/2000/svg">
<path fill-rule="evenodd" clip-rule="evenodd" d="M6 3H18C18.7956 3 19.5587 3.31607 20.1213 3.87868C20.6839 4.44129 21 5.20435 21 6V18C21 18.7956 20.6839 19.5587 20.1213 20.1213C19.5587 20.6839 18.7956 21 18 21H6C5.20435 21 4.44129 20.6839 3.87868 20.1213C3.31607 19.5587 3 18.7956 3 18V6C3 5.20435 3.31607 4.44129 3.87868 3.87868C4.44129 3.31607 5.20435 3 6 3ZM18.7071 18.7071C18.8946 18.5196 19 18.2652 19 18V6C19 5.73478 18.8946 5.48043 18.7071 5.29289C18.5196 5.10536 18.2652 5 18 5H6C5.73478 5 5.48043 5.10536 5.29289 5.29289C5.10536 5.48043 5 5.73478 5 6V18C5 18.2652 5.10536 18.5196 5.29289 18.7071C5.48043 18.8946 5.73478 19 6 19H18C18.2652 19 18.5196 18.8946 18.7071 18.7071ZM10.92 13.39L14.7 8.38999H14.69C14.8518 8.17782 15.0912 8.0386 15.3557 8.00297C15.6201 7.96734 15.8878 8.03821 16.1 8.19999C16.3122 8.36178 16.4514 8.60122 16.487 8.86564C16.5227 9.13007 16.4518 9.39782 16.29 9.60999L11.72 15.61C11.6268 15.731 11.5072 15.8291 11.3703 15.8967C11.2333 15.9643 11.0827 15.9996 10.93 16C10.7781 16.0008 10.628 15.967 10.4911 15.9012C10.3543 15.8353 10.2342 15.7392 10.14 15.62L7.71001 12.51C7.5469 12.3005 7.4737 12.0347 7.50652 11.7712C7.53934 11.5078 7.67549 11.2681 7.88501 11.105C8.09453 10.9419 8.36026 10.8687 8.62375 10.9015C8.88724 10.9343 9.1269 11.0705 9.29001 11.28L10.92 13.39Z" fill="#004CAC"/>
</svg>
