<svg width="24" height="24" viewBox="0 0 24 24" fill="none" xmlns="http://www.w3.org/2000/svg">
<path d="M14.4805 6.9842C14.6121 6.98344 14.7426 7.00867 14.8644 7.05843C14.9863 7.10819 15.0971 7.18152 15.1905 7.2742C15.2843 7.36717 15.3587 7.47777 15.4094 7.59962C15.4602 7.72148 15.4863 7.85219 15.4863 7.9842C15.4863 8.11621 15.4602 8.24692 15.4094 8.36878C15.3587 8.49064 15.2843 8.60124 15.1905 8.6942L11.8805 11.9842L15.0605 15.2942C15.2468 15.4816 15.3513 15.735 15.3513 15.9992C15.3513 16.2634 15.2468 16.5168 15.0605 16.7042C14.9676 16.7979 14.857 16.8723 14.7351 16.9231C14.6132 16.9739 14.4825 17 14.3505 17C14.2185 17 14.0878 16.9739 13.966 16.9231C13.8441 16.8723 13.7335 16.7979 13.6405 16.7042L9.78053 12.7042C9.5973 12.5173 9.49467 12.266 9.49467 12.0042C9.49467 11.7424 9.5973 11.4911 9.78053 11.3042L13.7805 7.3042C13.8703 7.20727 13.9784 7.12908 14.0985 7.07416C14.2187 7.01923 14.3485 6.98866 14.4805 6.9842Z" fill="#004CAC"/>
</svg>
