<svg width="24" height="24" viewBox="0 0 24 24" fill="none" xmlns="http://www.w3.org/2000/svg">
<path d="M19.4003 7.3401L16.6603 4.6001C16.3027 4.2642 15.8341 4.07146 15.3436 4.05855C14.8532 4.04565 14.3751 4.21347 14.0003 4.5301L5.0003 13.5301C4.67706 13.8561 4.4758 14.2833 4.4303 14.7401L4.0003 18.9101C3.98683 19.0566 4.00583 19.2042 4.05596 19.3425C4.10608 19.4808 4.1861 19.6063 4.2903 19.7101C4.38374 19.8028 4.49455 19.8761 4.61639 19.9259C4.73823 19.9756 4.86869 20.0009 5.0003 20.0001H5.0903L9.2603 19.6201C9.71709 19.5746 10.1443 19.3733 10.4703 19.0501L19.4703 10.0501C19.8196 9.68107 20.0084 9.18861 19.9953 8.68064C19.9822 8.17266 19.7682 7.69061 19.4003 7.3401ZM9.0803 17.6201L6.0803 17.9001L6.3503 14.9001L12.0003 9.3201L14.7003 12.0201L9.0803 17.6201ZM16.0003 10.6801L13.3203 8.0001L15.2703 6.0001L18.0003 8.7301L16.0003 10.6801Z" fill="#004CAC"/>
</svg>
