<svg width="24" height="24" viewBox="0 0 24 24" fill="none" xmlns="http://www.w3.org/2000/svg">
<path fill-rule="evenodd" clip-rule="evenodd" d="M14 2C16.21 2 18 3.79 18 6C18 8.21 16.21 10 14 10H7C5.9 10 5 10.9 5 12L5 14C5 15.1 5.9 16 7 16L9 16V15C9 13.3431 10.3431 12 12 12H17V22H12C10.3431 22 9 20.6569 9 19V18L7 18C4.79 18 3 16.21 3 14V12C3 9.79 4.79 8 7 8H14C15.1 8 16 7.1 16 6C16 4.9 15.1 4 14 4L12 4C11.4477 4 11 3.55228 11 3C11 2.44771 11.4477 2 12 2H14ZM11 15V19C11 19.5523 11.4477 20 12 20H15V14H12C11.4477 14 11 14.4477 11 15Z" fill="#004CAC"/>
<path d="M20 14C20.55 14 21 14.45 21 15C21 15.55 20.55 16 20 16H18V14H20Z" fill="#004CAC"/>
<path d="M18 18H20C20.55 18 21 18.45 21 19C21 19.55 20.55 20 20 20H18V18Z" fill="#004CAC"/>
</svg>
