<svg width="325" height="332" viewBox="0 0 325 332" fill="none" xmlns="http://www.w3.org/2000/svg">
<path d="M75.7982 324.564C8.10441 294.061 61.675 206.108 43.1692 173.57C24.6634 141.033 -5.53307 107.478 22.2278 52.5708C49.9886 -2.33596 176.419 -28.2639 260.861 45.4536C345.302 119.171 324.848 156.793 314.431 227.46C304.015 298.128 239.432 281.859 196.089 281.859C152.745 281.859 143.492 355.068 75.7982 324.564Z" fill="#F4F4F4"/>
<rect width="22.5176" height="22.8876" rx="3.84286" transform="matrix(-1 0 0 1 118.184 225.378)" fill="#F4F4F4"/>
<rect width="71.5738" height="36.4506" rx="7.68571" transform="matrix(-1 0 0 1 142.309 195.711)" fill="white"/>
<path d="M118.184 232.161V244.424C118.184 246.547 116.463 248.267 114.341 248.267H99.5092C97.3868 248.267 95.6663 246.547 95.6663 244.424V242.333" stroke="black" stroke-width="3" stroke-linecap="round"/>
<path d="M133.865 195.711H134.623C138.868 195.711 142.309 199.152 142.309 203.397V224.476C142.309 228.72 138.868 232.161 134.623 232.161H118.585M113.358 232.161H106.12M93.6549 232.161H78.4209C74.1762 232.161 70.7352 228.72 70.7352 224.476V221.353M134.669 217.327H102.501M96.4696 217.327H92.0465M81.1898 195.711H78.4209C74.1762 195.711 70.7352 199.152 70.7352 203.397V210.545M86.015 195.711H98.078M119.389 195.711H113.358M70.7352 217.645V216.214" stroke="black" stroke-width="3" stroke-linecap="round"/>
<path fill-rule="evenodd" clip-rule="evenodd" d="M76.1497 161.516C57.1059 150.565 44.1976 129.365 44.1976 105.007C44.1976 69.4267 71.7417 40.583 105.719 40.583C139.696 40.583 167.24 69.4267 167.24 105.007C167.24 129.732 153.94 151.203 134.424 162.004L128.385 195.101C128.052 196.927 126.461 198.254 124.605 198.254H86.0574C84.2011 198.254 82.6101 196.927 82.277 195.101L76.1497 161.516Z" fill="white"/>
<path fill-rule="evenodd" clip-rule="evenodd" d="M81.5692 156.958C65.4072 145.762 54.6534 125.841 54.6534 103.132C54.6534 68.1191 80.2171 39.7354 111.752 39.7354C143.286 39.7354 168.85 68.1191 168.85 103.132C168.85 128.652 155.269 150.65 135.695 160.703L130.366 191.671C130.049 193.515 128.45 194.862 126.579 194.862H91.3294C89.4585 194.862 87.8595 193.515 87.5422 191.671L81.5692 156.958Z" fill="#D9D9D9"/>
<path d="M71.9326 107.932C71.9326 123.092 86.9932 135.382 105.571 135.382C124.149 135.382 139.21 123.092 139.21 107.932C139.21 92.7722 124.149 80.4824 105.571 80.4824C86.9932 80.4824 71.9326 92.7722 71.9326 107.932Z" fill="#F4F4F4"/>
<path d="M126.137 195.71C128.059 195.71 129.713 194.276 130.082 192.287L136.188 159.465C156.091 148.665 169.656 127.192 169.656 102.464C169.656 66.8838 141.572 38.04 106.928 38.04C93.6641 38.04 81.3617 42.2682 71.2289 49.4838M86.9154 195.71C84.993 195.71 83.3395 194.276 82.9696 192.287L76.7717 158.969C57.3586 148.017 44.2005 126.819 44.2005 102.464C44.2005 94.5635 45.5852 86.9949 48.1191 80.0006M51.8948 71.5237C51.4262 72.401 50.9769 73.2908 50.5475 74.1924M56.2635 64.472C59.2843 60.2299 62.7981 56.3814 66.7181 53.0154" stroke="black" stroke-width="3" stroke-linecap="round"/>
<line x1="1.5" y1="-1.5" x2="18.5887" y2="-1.5" transform="matrix(0.480391 0.877055 0.854246 -0.519869 61.0917 16)" stroke="black" stroke-width="3" stroke-linecap="round"/>
<line x1="1.5" y1="-1.5" x2="17.8008" y2="-1.5" transform="matrix(1 -8.97554e-08 -8.51508e-08 -1 10.9996 99.0742)" stroke="black" stroke-width="3" stroke-linecap="round"/>
<line x1="1.5" y1="-1.5" x2="18.5886" y2="-1.5" transform="matrix(-0.48039 0.877055 -0.854246 -0.51987 159.775 17.6963)" stroke="black" stroke-width="3" stroke-linecap="round"/>
<line x1="208.367" y1="102.27" x2="192.066" y2="102.27" stroke="black" stroke-width="3" stroke-linecap="round"/>
<path d="M125.426 112.635C109.021 112.848 101.702 101.19 107.331 101.191C112.96 101.192 121.002 114.33 107.331 114.33C93.6596 114.33 92.4533 101.191 96.4743 101.191C100.495 101.191 102.908 112.635 98.0827 114.33C93.2575 116.026 86.0197 112.635 86.0197 112.635" stroke="black" stroke-width="3" stroke-linecap="round"/>
<line x1="1.5" y1="-1.5" x2="95.0754" y2="-1.5" transform="matrix(0.183198 0.983076 0.97923 -0.20275 77.9798 99.0728)" stroke="black" stroke-width="3" stroke-linecap="round"/>
<line x1="1.5" y1="-1.5" x2="95.0754" y2="-1.5" transform="matrix(-0.183198 0.983076 -0.97923 -0.20275 131.859 99.0747)" stroke="black" stroke-width="3" stroke-linecap="round"/>
<rect x="164.115" y="265.227" width="152.499" height="25.3392" rx="3.84286" fill="white"/>
<rect x="185.902" y="289.776" width="108.928" height="7.12664" rx="3.56332" fill="#F4F4F4"/>
<rect x="215.2" y="296.903" width="48.0786" height="13.4615" rx="3.84286" fill="#F4F4F4"/>
<path d="M194.164 290.566H167.958C165.836 290.566 164.115 288.846 164.115 286.723V269.07C164.115 266.948 165.836 265.227 167.958 265.227H255.765M219.706 290.566H312.772C314.894 290.566 316.615 288.846 316.615 286.723V277.897V269.07C316.615 266.948 314.894 265.227 312.772 265.227H307.083M214.823 290.566H203.179M265.907 265.227H290.697M294.829 265.227H298.21" stroke="black" stroke-width="3" stroke-linecap="round"/>
<path d="M185.902 291.359V293.059C185.902 295.181 187.622 296.902 189.744 296.902H223.463M286.942 296.902H291.662C293.412 296.902 294.83 295.484 294.83 293.734V293.734C294.83 291.985 293.412 290.567 291.662 290.567H290.698M280.181 296.902H276.049M271.166 296.902H246" stroke="black" stroke-width="3" stroke-linecap="round"/>
<path d="M215.2 297.298V306.521C215.2 308.643 216.92 310.364 219.042 310.364H257.644" stroke="black" stroke-width="3" stroke-linecap="round"/>
<ellipse cx="191.53" cy="278.29" rx="7.13668" ry="4.35519" fill="#AAAAAA"/>
<ellipse cx="224.582" cy="278.29" rx="7.13668" ry="4.35518" fill="#AAAAAA"/>
<ellipse cx="257.639" cy="278.29" rx="7.13668" ry="4.35518" fill="#AAAAAA"/>
<ellipse cx="290.693" cy="278.29" rx="7.13666" ry="4.35518" fill="#AAAAAA"/>
<path d="M198.667 278.29C198.667 280.696 195.472 282.646 191.53 282.646C187.589 282.646 184.394 280.696 184.394 278.29C184.394 276.817 185.592 275.515 187.426 274.727" stroke="black" stroke-width="3" stroke-linecap="round"/>
<path d="M231.719 278.291C231.719 280.696 228.523 282.646 224.582 282.646C220.64 282.646 217.445 280.696 217.445 278.291C217.445 276.818 218.644 275.516 220.478 274.728" stroke="black" stroke-width="3" stroke-linecap="round"/>
<path d="M264.776 278.291C264.776 280.696 261.581 282.646 257.639 282.646C253.698 282.646 250.503 280.696 250.503 278.291C250.503 276.818 251.701 275.516 253.535 274.728" stroke="black" stroke-width="3" stroke-linecap="round"/>
<path d="M297.83 278.291C297.83 280.696 294.634 282.646 290.693 282.646C286.751 282.646 283.556 280.696 283.556 278.291C283.556 276.818 284.755 275.516 286.589 274.728" stroke="black" stroke-width="3" stroke-linecap="round"/>
<path d="M187.404 224.402C183.272 222.819 182.521 219.255 180.643 220.443C180.643 220.443 188.907 262.411 229.849 264.787C270.791 267.162 292.366 247.366 299.337 218.902C306.309 190.437 284.689 157.095 280.557 157.095C280.557 157.095 274.547 174.486 264.03 172.974C253.513 171.463 249.881 159.053 252.761 146.405C255.641 133.756 262.904 125.817 261.025 124.629C259.146 123.441 217.078 123.046 197.922 161.451C178.765 199.855 196.796 222.819 196.419 224.402C196.043 225.986 191.537 225.986 187.404 224.402Z" fill="white"/>
<path d="M188.156 224.445C184.355 222.948 182.747 219.759 181.019 220.882C181.019 220.882 188.062 255.061 225.718 257.307C263.373 259.553 283.4 240.654 289.811 213.742C296.223 186.83 281.352 163.473 277.552 163.473C277.552 163.473 272.201 174.8 262.528 173.371C252.855 171.942 244.325 157.157 246.973 145.199C249.622 133.24 256.302 125.734 254.574 124.611C252.845 123.488 217.83 124.611 198.298 160.305C178.766 196 196.766 222.948 196.42 224.445C196.073 225.943 191.957 225.943 188.156 224.445Z" fill="#AAAAAA"/>
<path d="M299.337 218.902C306.309 190.437 284.689 157.095 280.557 157.095C280.557 157.095 274.547 174.486 264.03 172.974C253.513 171.463 249.881 159.053 252.761 146.405C255.641 133.756 262.904 125.817 261.025 124.629C259.146 123.441 217.078 123.046 197.922 161.451C178.765 199.855 196.796 222.819 196.419 224.402C196.043 225.986 191.537 225.986 187.404 224.402C183.272 222.819 182.521 219.255 180.643 220.443C180.643 220.443 188.907 262.411 229.849 264.787C255.125 266.253 273.02 259.269 284.654 247.012M297.626 224.841C297.801 224.316 297.971 223.788 298.135 223.257M295.676 229.988C293.725 234.565 291.295 238.813 288.362 242.657" stroke="black" stroke-width="3" stroke-linecap="round"/>
<path d="M205.739 232.873C203.257 231.92 202.806 229.774 201.678 230.489C201.678 230.489 206.641 255.761 231.233 257.191C255.824 258.622 268.784 246.701 272.971 229.561C277.158 212.42 264.172 192.343 261.69 192.343C261.69 192.343 258.081 202.815 251.763 201.905C245.446 200.994 243.265 193.522 244.995 185.905C246.725 178.289 251.087 173.508 249.959 172.793C248.83 172.077 223.562 171.839 212.056 194.965C200.55 218.091 211.38 231.919 211.154 232.873C210.927 233.827 208.221 233.827 205.739 232.873Z" fill="#D9D9D9"/>
<path d="M230.795 228.405C227.414 231.177 227.414 224.446 226.287 225.634C226.287 225.634 219.113 236.324 223.245 248.201C227.377 260.079 240.519 258.1 240.519 258.1C240.519 258.1 258.203 251.765 256.519 231.968C254.834 212.172 242.063 202.67 242.063 202.67C242.063 202.67 234.175 225.634 230.795 228.405Z" fill="white"/>
<path d="M256.333 233.552C256.709 214.548 242.06 202.67 242.06 202.67C242.06 202.67 234.172 225.634 230.791 228.405C227.411 231.177 227.411 224.446 226.284 225.634C226.284 225.634 220.487 240.283 223.241 248.201C225.996 256.12 233.603 256.912 233.603 256.912" stroke="black" stroke-width="3" stroke-linecap="round"/>
<line x1="1.5" y1="-1.5" x2="7.63904" y2="-1.5" transform="matrix(-0.854246 0.519869 -0.48039 -0.877055 236.523 104.899)" stroke="black" stroke-width="3" stroke-linecap="round"/>
<line x1="1.5" y1="-1.5" x2="8.17128" y2="-1.5" transform="matrix(0.504959 0.863144 -0.838441 0.544993 229.593 104.974)" stroke="black" stroke-width="3" stroke-linecap="round"/>
<line x1="1.5" y1="-1.5" x2="7.63902" y2="-1.5" transform="matrix(-0.854246 0.519868 -0.480391 -0.877055 311.501 170.364)" stroke="black" stroke-width="3" stroke-linecap="round"/>
<line x1="1.5" y1="-1.5" x2="8.1713" y2="-1.5" transform="matrix(0.504961 0.863142 -0.838443 0.54499 304.569 170.438)" stroke="black" stroke-width="3" stroke-linecap="round"/>
</svg>
