<svg width="341" height="332" viewBox="0 0 341 332" fill="none" xmlns="http://www.w3.org/2000/svg">
<path d="M18.4705 152.797C34.681 116.304 -25.6562 75.5252 18.4705 24.9084C62.5972 -25.7084 131.611 14.8284 172.803 24.9083C213.994 34.9882 289.973 -6.35832 328.233 57.0379C366.493 120.434 287 290 233.5 303.5C180 317 167.381 320.855 121 317.5C74.619 314.145 51.6695 289.042 30.1815 253.915C8.69355 218.788 2.26003 189.29 18.4705 152.797Z" fill="#F4F4F4"/>
<ellipse cx="149.338" cy="311.945" rx="149.338" ry="20.0552" fill="#D9D9D9"/>
<path d="M42 96.1362C42 94.4794 43.3431 93.1362 45 93.1362H299.408C301.065 93.1362 302.408 94.4794 302.408 96.1362V291.411C302.408 302.457 293.454 311.411 282.408 311.411H62C50.9543 311.411 42 302.457 42 291.411V96.1362Z" fill="#AAAAAA"/>
<path d="M42 93.1362V290.479C42 301.524 50.9543 310.479 62 310.479H282.408C293.454 310.479 302.408 301.524 302.408 290.479V289.957M302.408 93.1362V259.175M302.408 283.894V285.293M302.408 278.297V269.902" stroke="black" stroke-width="3" stroke-linecap="round"/>
<rect width="124.137" height="71.8256" rx="3" transform="matrix(1 0 0 -1 157.738 181.758)" fill="white"/>
<line x1="1.5" y1="-1.5" x2="47.3243" y2="-1.5" transform="matrix(0.70732 -0.706894 0.70732 0.706894 168.004 163.103)" stroke="black" stroke-width="3" stroke-linecap="round"/>
<line x1="1.5" y1="-1.5" x2="47.3243" y2="-1.5" transform="matrix(0.70732 -0.706894 0.70732 0.706894 234.273 163.103)" stroke="black" stroke-width="3" stroke-linecap="round"/>
<path d="M193.615 147.655L197.684 143.588L199.719 141.555M185.476 155.789L183.441 157.822" stroke="black" stroke-width="3" stroke-linecap="round"/>
<path d="M256.208 151.442L263.954 143.588L265.988 141.555M251.746 155.789L249.711 157.822" stroke="black" stroke-width="3" stroke-linecap="round"/>
<rect width="139.071" height="13.0592" rx="3" transform="matrix(1 0 0 -1 149.34 192.019)" fill="#D9D9D9"/>
<path d="M253.643 178.96H262.335M271.027 178.96H285.411C287.068 178.96 288.411 180.303 288.411 181.96V189.019C288.411 190.676 287.068 192.019 285.411 192.019H152.34C150.683 192.019 149.34 190.676 149.34 189.019V181.96C149.34 180.303 150.683 178.96 152.34 178.96H218.875H249.676" stroke="black" stroke-width="3" stroke-linecap="round"/>
<path d="M215.605 109.927L215.605 178.021L224.006 178.021L224.006 109.927L215.605 109.927Z" fill="#F4F4F4"/>
<path d="M215.605 178.954L215.605 109.926M224.006 109.926L224.006 153.405M224.006 178.487L224.006 170.325M224.006 166.179L224.006 162.033" stroke="black" stroke-width="3" stroke-linecap="round"/>
<path d="M157.738 178.954V112.926C157.738 111.27 159.081 109.926 160.738 109.926H218.874M281.875 178.954V112.926C281.875 111.27 280.532 109.926 278.875 109.926H245.474M233.341 109.926H224.007M237.074 109.926H238.941" stroke="black" stroke-width="3" stroke-linecap="round"/>
<rect width="124.137" height="53.1696" rx="3" transform="matrix(1 0 0 -1 158.672 269.169)" fill="white"/>
<line x1="1.5" y1="-1.5" x2="47.3243" y2="-1.5" transform="matrix(0.70732 -0.706894 0.70732 0.706894 168.938 259.848)" stroke="black" stroke-width="3" stroke-linecap="round"/>
<line x1="1.5" y1="-1.5" x2="47.3243" y2="-1.5" transform="matrix(0.70732 -0.706894 0.70732 0.706894 235.207 259.848)" stroke="black" stroke-width="3" stroke-linecap="round"/>
<path d="M194.548 244.4L198.618 240.333L200.652 238.3M186.41 252.534L184.375 254.567" stroke="black" stroke-width="3" stroke-linecap="round"/>
<path d="M257.142 248.187L264.887 240.333L266.922 238.3M252.679 252.534L250.645 254.567" stroke="black" stroke-width="3" stroke-linecap="round"/>
<path d="M216.539 215.999L216.539 268.236L224.939 268.236L224.939 215.999L216.539 215.999Z" fill="#F4F4F4"/>
<path d="M216.539 269.169L216.539 215.999M224.939 215.999L224.939 249.489M224.939 268.81L224.939 262.523M224.939 259.329L224.939 256.135" stroke="black" stroke-width="3" stroke-linecap="round"/>
<path d="M234.274 269.169H224.941M238.008 269.169H239.874M219.807 269.169H161.672C160.015 269.169 158.672 267.825 158.672 266.169V218.999C158.672 217.342 160.015 215.999 161.672 215.999H279.809C281.466 215.999 282.809 217.342 282.809 218.999V266.169C282.809 267.826 281.466 269.169 279.809 269.169H246.408" stroke="black" stroke-width="3" stroke-linecap="round"/>
<path d="M75.6534 40.194C76.2217 39.4623 77.0962 39.0342 78.0227 39.0342H267.323C268.249 39.0342 269.124 39.4623 269.692 40.194L307.051 88.2964C308.582 90.2673 307.177 93.1366 304.682 93.1366H40.6637C38.1682 93.1366 36.7636 90.2673 38.2943 88.2964L75.6534 40.194Z" fill="white"/>
<path d="M289.801 66.0854L307.051 88.2964C308.582 90.2673 307.177 93.1366 304.682 93.1366H172.673M277.209 49.5541L276.276 48.427M279.076 52.1841L285.61 60.4497M274.044 45.797L269.692 40.194C269.124 39.4623 268.249 39.0342 267.323 39.0342H78.0227C77.0962 39.0342 76.2217 39.4623 75.6534 40.194L38.2943 88.2964C36.7636 90.2673 38.1682 93.1366 40.6637 93.1366H103.604M138.138 93.1366H164.739" stroke="black" stroke-width="3" stroke-linecap="round"/>
<rect x="212.805" y="70.749" width="35.4464" height="35.4678" rx="3" transform="rotate(-90 212.805 70.749)" fill="#F4F4F4"/>
<path d="M248.273 35.3026L248.273 57.6898M212.806 39.0338L212.806 67.749C212.806 69.4059 214.149 70.749 215.806 70.749L245.273 70.749C246.93 70.749 248.273 69.4059 248.273 67.749L248.273 66.3182M248.273 61.8874L248.273 61.1878" stroke="black" stroke-width="3" stroke-linecap="round"/>
<rect x="204.406" y="39.0337" width="20.5216" height="52.2683" rx="3" transform="rotate(-90 204.406 39.0337)" fill="#D9D9D9"/>
<path d="M215.841 39.0337L207.406 39.0337C205.749 39.0337 204.406 37.6905 204.406 36.0337L204.406 21.5121C204.406 19.8552 205.749 18.5121 207.406 18.5121L253.675 18.5121C255.331 18.5121 256.675 19.8552 256.675 21.5121L256.675 36.0337C256.675 37.6905 255.331 39.0337 253.675 39.0337L229.14 39.0337M221.207 39.0337L224.94 39.0337" stroke="black" stroke-width="3" stroke-linecap="round"/>
<path d="M40.1328 170.028C40.1328 169.179 40.4931 168.369 41.1242 167.8L85.7256 127.595C86.8671 126.566 88.6015 126.566 89.7429 127.595L134.344 167.8C134.975 168.369 135.336 169.179 135.336 170.028V307.479C135.336 309.136 133.993 310.479 132.336 310.479H43.1328C41.476 310.479 40.1328 309.136 40.1328 307.479V170.028Z" fill="#D9D9D9"/>
<path d="M40.1328 168.693V183.618M135.336 168.693V270.369M40.1328 197.61V307.479C40.1328 309.136 41.476 310.479 43.1328 310.479H132.336C133.993 310.479 135.336 309.136 135.336 307.479V292.756M40.1328 188.282V190.614M135.336 284.361V275.965" stroke="black" stroke-width="3" stroke-linecap="round"/>
<mask id="path-31-inside-1_954:30572" fill="white">
<path d="M154.703 178.243L89.9972 119.638C89.8547 119.509 89.7284 119.363 89.5983 119.221C88.4958 118.023 86.5867 118.023 85.4842 119.221C85.3541 119.363 85.2277 119.509 85.0853 119.638L20.3791 178.243C20.2367 178.372 20.1025 178.513 20.0029 178.677C18.8972 180.502 20.1989 182.912 22.4067 182.912H28.5452C29.2722 182.912 29.9744 182.648 30.5213 182.17L88.0086 131.841L144.557 182.154C145.106 182.642 145.816 182.912 146.551 182.912H152.676C154.884 182.912 156.185 180.502 155.08 178.677C154.98 178.513 154.846 178.372 154.703 178.243Z"/>
</mask>
<path d="M154.703 178.243L89.9972 119.638C89.8547 119.509 89.7284 119.363 89.5983 119.221C88.4958 118.023 86.5867 118.023 85.4842 119.221C85.3541 119.363 85.2277 119.509 85.0853 119.638L20.3791 178.243C20.2367 178.372 20.1025 178.513 20.0029 178.677C18.8972 180.502 20.1989 182.912 22.4067 182.912H28.5452C29.2722 182.912 29.9744 182.648 30.5213 182.17L88.0086 131.841L144.557 182.154C145.106 182.642 145.816 182.912 146.551 182.912H152.676C154.884 182.912 156.185 180.502 155.08 178.677C154.98 178.513 154.846 178.372 154.703 178.243Z" fill="white"/>
<path d="M89.9972 119.638L87.9833 121.861L87.9833 121.861L89.9972 119.638ZM154.703 178.243L152.689 180.467L152.689 180.467L154.703 178.243ZM20.3791 178.243L18.3652 176.02L18.3652 176.02L20.3791 178.243ZM85.0853 119.638L87.0992 121.861L87.0992 121.861L85.0853 119.638ZM20.0029 178.677L17.4372 177.122L17.4372 177.122L20.0029 178.677ZM155.08 178.677L157.645 177.122V177.122L155.08 178.677ZM89.5983 119.221L91.8065 117.191L91.8065 117.191L89.5983 119.221ZM85.4842 119.221L83.276 117.191L83.276 117.191L85.4842 119.221ZM144.557 182.154L146.551 179.912V179.912L144.557 182.154ZM88.0086 131.841L90.0028 129.6L88.0247 127.84L86.0325 129.584L88.0086 131.841ZM30.5213 182.17L32.4975 184.427H32.4975L30.5213 182.17ZM87.9833 121.861L152.689 180.467L156.717 176.02L92.0111 117.414L87.9833 121.861ZM22.393 180.467L87.0992 121.861L83.0714 117.414L18.3652 176.02L22.393 180.467ZM146.551 185.912H152.676V179.912H146.551V185.912ZM22.4067 185.912H28.5452V179.912H22.4067V185.912ZM17.4372 177.122C15.1385 180.916 17.8255 185.912 22.4067 185.912V179.912C22.4057 179.912 22.4197 179.912 22.4435 179.919C22.4668 179.926 22.4905 179.936 22.512 179.949C22.5536 179.975 22.5735 180.002 22.5825 180.018C22.5911 180.033 22.6015 180.06 22.6016 180.102C22.6017 180.154 22.5857 180.204 22.5686 180.232L17.4372 177.122ZM152.514 180.232C152.497 180.204 152.481 180.154 152.481 180.102C152.481 180.06 152.491 180.033 152.5 180.018C152.509 180.002 152.529 179.975 152.571 179.949C152.592 179.936 152.616 179.926 152.639 179.919C152.663 179.912 152.677 179.912 152.676 179.912V185.912C157.257 185.912 159.944 180.916 157.645 177.122L152.514 180.232ZM91.8065 117.191C89.5155 114.699 85.567 114.699 83.276 117.191L87.6924 121.252C87.6453 121.303 87.5818 121.322 87.5412 121.322C87.5007 121.322 87.4372 121.303 87.3901 121.252L91.8065 117.191ZM146.551 179.912L90.0028 129.6L86.0145 134.083L142.563 184.395L146.551 179.912ZM86.0325 129.584L28.5452 179.912L32.4975 184.427L89.9847 134.099L86.0325 129.584ZM28.5452 185.912C29.9991 185.912 31.4036 185.384 32.4975 184.427L28.5452 179.912L28.5452 179.912V185.912ZM146.551 179.912L146.551 179.912L142.563 184.395C143.661 185.372 145.081 185.912 146.551 185.912V179.912ZM87.0992 121.861C87.3752 121.611 87.6462 121.302 87.6924 121.252L83.276 117.191C83.2359 117.234 83.1945 117.28 83.1674 117.31C83.1364 117.344 83.1152 117.367 83.0968 117.387C83.0592 117.427 83.0555 117.429 83.0713 117.414L87.0992 121.861ZM18.3652 176.02C18.1314 176.231 17.7547 176.598 17.4372 177.122L22.5686 180.232C22.5058 180.335 22.4483 180.405 22.4173 180.44C22.3874 180.473 22.3733 180.485 22.393 180.467L18.3652 176.02ZM152.689 180.467C152.709 180.485 152.695 180.473 152.665 180.44C152.634 180.405 152.577 180.335 152.514 180.232L157.645 177.122C157.328 176.598 156.951 176.231 156.717 176.02L152.689 180.467ZM92.0111 117.414C92.0269 117.429 92.0233 117.427 91.9857 117.387C91.9673 117.367 91.946 117.344 91.9151 117.31C91.888 117.28 91.8466 117.234 91.8065 117.191L87.3901 121.252C87.4362 121.302 87.7073 121.611 87.9833 121.861L92.0111 117.414Z" fill="black" mask="url(#path-31-inside-1_954:30572)"/>
<rect x="60.5742" y="276.526" width="53.9351" height="10.0592" rx="1.5" fill="#F4F4F4" stroke="black" stroke-width="3"/>
<rect x="55.9062" y="287.719" width="62.3354" height="10.0592" rx="1.5" fill="#F4F4F4" stroke="black" stroke-width="3"/>
<rect x="52.1719" y="298.914" width="69.8023" height="10.0592" rx="1.5" fill="#F4F4F4" stroke="black" stroke-width="3"/>
<path d="M107.936 172.424H66.6016C63.8401 172.424 61.6016 174.663 61.6016 177.424V272.831C61.6016 275.592 63.8401 277.831 66.6016 277.831H107.936C110.698 277.831 112.936 275.592 112.936 272.831V177.424C112.936 174.663 110.698 172.424 107.936 172.424Z" fill="#F4F4F4"/>
<path d="M112.936 245.649V177.424C112.936 174.663 110.698 172.424 107.936 172.424H66.6016C63.8401 172.424 61.6016 174.663 61.6016 177.424V272.831C61.6016 275.592 63.8401 277.831 66.6016 277.831H107.936C110.698 277.831 112.936 275.592 112.936 272.831V264.655M112.936 258.009V252.295" stroke="black" stroke-width="3" stroke-linecap="round"/>
<rect x="69.0703" y="178.954" width="37.3345" height="55.0352" rx="3" fill="white"/>
<path d="M89.6043 178.954H72.0703C70.4135 178.954 69.0703 180.297 69.0703 181.954V221.396" stroke="black" stroke-width="3" stroke-linecap="round"/>
<rect x="70.9336" y="242.384" width="14.0004" height="26.1184" rx="3" fill="white"/>
<rect x="89.6016" y="242.384" width="14.0004" height="26.1184" rx="3" fill="white"/>
<path d="M78.4005 243.884C79.2289 243.884 79.9005 243.213 79.9005 242.384C79.9005 241.556 79.2289 240.884 78.4005 240.884V243.884ZM69.4336 262.906C69.4336 263.734 70.1052 264.406 70.9336 264.406C71.762 264.406 72.4336 263.734 72.4336 262.906H69.4336ZM73.9336 243.884H78.4005V240.884H73.9336V243.884ZM72.4336 262.906V245.384H69.4336V262.906H72.4336ZM73.9336 240.884C71.4483 240.884 69.4336 242.899 69.4336 245.384H72.4336C72.4336 244.556 73.1052 243.884 73.9336 243.884V240.884Z" fill="black"/>
<path d="M93.8017 243.884C94.6301 243.884 95.3017 243.213 95.3017 242.384C95.3017 241.556 94.6301 240.884 93.8017 240.884V243.884ZM88.1016 253.578C88.1016 254.406 88.7731 255.078 89.6016 255.078C90.43 255.078 91.1016 254.406 91.1016 253.578H88.1016ZM91.1016 257.775C91.1016 256.947 90.43 256.275 89.6016 256.275C88.7731 256.275 88.1016 256.947 88.1016 257.775H91.1016ZM88.1016 262.439C88.1016 263.268 88.7731 263.939 89.6016 263.939C90.43 263.939 91.1016 263.268 91.1016 262.439H88.1016ZM92.6016 243.884H93.8017V240.884H92.6016V243.884ZM91.1016 253.578V245.384H88.1016V253.578H91.1016ZM88.1016 257.775V262.439H91.1016V257.775H88.1016ZM92.6016 240.884C90.1163 240.884 88.1016 242.899 88.1016 245.384H91.1016C91.1016 244.556 91.7731 243.884 92.6016 243.884V240.884Z" fill="black"/>
</svg>
