<svg width="294" height="332" viewBox="0 0 294 332" fill="none" xmlns="http://www.w3.org/2000/svg">
<path d="M291.383 144.024C305.894 95.7254 256.722 74.0692 225.835 31.2488C194.948 -11.5716 133.769 -7.09004 88.2355 24.7761C42.7025 56.6423 102.027 91.828 63.7177 154.733C25.4084 217.638 -20.8436 233.404 10.1789 275.229C41.2014 317.054 128.505 338 175.799 330.499C223.093 322.997 230.442 261.101 234.842 217.969C239.241 174.836 276.873 192.322 291.383 144.024Z" fill="#F4F4F4"/>
<rect x="14" y="245.073" width="227.668" height="35.8885" rx="5" fill="white"/>
<rect x="46.5212" y="279.841" width="162.62" height="10.0937" rx="5" fill="#F4F4F4"/>
<rect x="90.2667" y="289.934" width="71.7771" height="19.0658" rx="5" fill="white"/>
<path d="M58.8607 280.962H19C16.2386 280.962 14 278.723 14 275.962V250.073C14 247.312 16.2386 245.073 19 245.073H150.825M96.9923 280.962H236.668C239.429 280.962 241.668 278.723 241.668 275.962V263.018V250.073C241.668 247.312 239.429 245.073 236.668 245.073H227.439M89.7024 280.962H72.3189M165.966 245.073H202.976M209.144 245.073H214.191" stroke="black" stroke-width="3" stroke-linecap="round"/>
<path d="M46.5212 282.084V284.935C46.5212 287.696 48.7598 289.935 51.5212 289.935H102.597M197.365 289.935H204.655C207.133 289.935 209.141 287.926 209.141 285.448V285.448C209.141 282.971 207.133 280.962 204.655 280.962H202.973M187.272 289.935H181.103M173.813 289.935H136.243" stroke="black" stroke-width="3" stroke-linecap="round"/>
<path d="M90.2667 290.494V303.999C90.2667 306.761 92.5053 308.999 95.2667 308.999H153.632" stroke="black" stroke-width="3" stroke-linecap="round"/>
<ellipse cx="54.9347" cy="263.579" rx="10.6544" ry="6.16835" fill="#AAAAAA"/>
<ellipse cx="104.282" cy="263.579" rx="10.6544" ry="6.16835" fill="#AAAAAA"/>
<ellipse cx="153.63" cy="263.579" rx="10.6544" ry="6.16835" fill="#AAAAAA"/>
<ellipse cx="202.981" cy="263.579" rx="10.6544" ry="6.16835" fill="#AAAAAA"/>
<path d="M65.5891 263.58C65.5891 266.986 60.819 269.748 54.9347 269.748C49.0504 269.748 44.2803 266.986 44.2803 263.58C44.2803 261.493 46.0691 259.649 48.8073 258.533" stroke="black" stroke-width="3" stroke-linecap="round"/>
<path d="M114.936 263.58C114.936 266.986 110.166 269.748 104.282 269.748C98.3973 269.748 93.6272 266.986 93.6272 263.58C93.6272 261.494 95.4161 259.649 98.1542 258.533" stroke="black" stroke-width="3" stroke-linecap="round"/>
<path d="M164.284 263.58C164.284 266.986 159.514 269.748 153.63 269.748C147.745 269.748 142.975 266.986 142.975 263.58C142.975 261.494 144.764 259.649 147.502 258.533" stroke="black" stroke-width="3" stroke-linecap="round"/>
<path d="M213.636 263.58C213.636 266.986 208.866 269.748 202.981 269.748C197.097 269.748 192.327 266.986 192.327 263.58C192.327 261.494 194.116 259.649 196.854 258.533" stroke="black" stroke-width="3" stroke-linecap="round"/>
<path d="M48.7658 187.255C42.596 185.012 41.4759 179.965 38.6721 181.648C38.6721 181.648 51.009 241.088 112.131 244.453C173.254 247.817 205.465 219.779 215.872 179.464C226.279 139.15 194.002 91.9263 187.834 91.9263C187.834 91.9263 178.862 116.558 163.161 114.416C147.459 112.275 142.038 94.7 146.338 76.7857C150.637 58.8714 161.48 47.6264 158.674 45.9441C155.869 44.2619 93.0657 43.7022 64.467 98.0952C35.8683 152.488 62.7862 185.012 62.224 187.255C61.6618 189.499 54.9356 189.498 48.7658 187.255Z" fill="white"/>
<path d="M49.8946 187.314C44.22 185.194 41.8189 180.677 39.2402 182.267C39.2402 182.267 49.754 230.676 105.97 233.857C162.187 237.038 192.084 210.271 201.656 172.155C211.228 134.039 189.028 100.957 183.355 100.957C183.355 100.957 175.366 117.001 160.925 114.976C146.484 112.952 133.749 92.013 137.703 75.0757C141.658 58.1383 151.63 47.5066 149.05 45.9161C146.47 44.3255 94.1945 45.9165 65.0351 96.4712C35.8756 147.026 62.7484 185.193 62.2313 187.314C61.7142 189.435 55.5692 189.435 49.8946 187.314Z" fill="#AAAAAA"/>
<path d="M215.872 179.464C226.279 139.15 194.002 91.9263 187.834 91.9263C187.834 91.9263 178.862 116.558 163.161 114.416C147.459 112.275 142.038 94.7 146.338 76.7857C150.637 58.8714 161.48 47.6264 158.674 45.9441C155.869 44.2619 93.0657 43.7022 64.467 98.0952C35.8683 152.488 62.7862 185.012 62.224 187.255C61.6618 189.499 54.9356 189.498 48.7658 187.255C42.596 185.012 41.4759 179.965 38.6721 181.648C38.6721 181.648 51.009 241.088 112.131 244.453C149.866 246.53 176.582 236.638 193.95 219.278M213.317 187.876C213.578 187.133 213.832 186.385 214.076 185.633M210.406 195.166C207.492 201.648 203.865 207.665 199.486 213.11" stroke="black" stroke-width="3" stroke-linecap="round"/>
<path d="M76.1434 199.251C72.4375 197.9 71.7648 194.861 70.0807 195.874C70.0807 195.874 77.4908 231.667 114.204 233.693C150.916 235.719 170.264 218.836 176.515 194.559C182.766 170.283 163.379 141.846 159.674 141.846C159.674 141.846 154.285 156.679 144.854 155.389C135.423 154.1 132.167 143.517 134.749 132.729C137.332 121.942 143.844 115.17 142.159 114.157C140.474 113.144 102.752 112.807 85.5742 145.561C68.3966 178.315 84.5646 197.9 84.227 199.251C83.8893 200.602 79.8492 200.601 76.1434 199.251Z" fill="#D9D9D9"/>
<path d="M113.543 192.923C108.496 196.848 108.497 187.315 106.814 188.997C106.814 188.997 96.1028 204.138 102.272 220.961C108.441 237.783 128.061 234.98 128.061 234.98C128.061 234.98 154.462 226.007 151.947 197.97C149.432 169.932 130.366 156.473 130.366 156.473C130.366 156.473 118.59 188.997 113.543 192.923Z" fill="white"/>
<path d="M151.672 200.213C152.234 173.296 130.363 156.473 130.363 156.473C130.363 156.473 118.587 188.997 113.54 192.923C108.493 196.848 108.494 187.315 106.811 188.997C106.811 188.997 98.1562 209.745 102.269 220.961C106.381 232.176 117.738 233.297 117.738 233.297" stroke="black" stroke-width="3" stroke-linecap="round"/>
<line x1="121.553" y1="20.049" x2="112.496" y2="25.2781" stroke="black" stroke-width="3" stroke-linecap="round"/>
<line x1="113.819" y1="18.5934" x2="119.535" y2="27.863" stroke="black" stroke-width="3" stroke-linecap="round"/>
<line x1="31.5307" y1="147.499" x2="22.4736" y2="152.728" stroke="black" stroke-width="3" stroke-linecap="round"/>
<line x1="23.801" y1="146.043" x2="29.5171" y2="155.313" stroke="black" stroke-width="3" stroke-linecap="round"/>
<line x1="233.486" y1="112.768" x2="224.429" y2="117.997" stroke="black" stroke-width="3" stroke-linecap="round"/>
<line x1="225.749" y1="111.313" x2="231.465" y2="120.582" stroke="black" stroke-width="3" stroke-linecap="round"/>
<rect x="245.268" y="290.833" width="21.3633" height="8.99508" rx="3" fill="white"/>
<rect x="239.646" y="297.577" width="34.8559" height="13.4926" rx="3" fill="white"/>
<path d="M248.641 297.579H248.268C246.611 297.579 245.268 296.236 245.268 294.579V293.833C245.268 292.176 246.611 290.833 248.268 290.833H264.383C265.625 290.833 266.632 291.839 266.632 293.081V293.081" stroke="black" stroke-width="3" stroke-linecap="round"/>
<path d="M256.512 311.07H242.646C240.99 311.07 239.646 309.727 239.646 308.07V300.577C239.646 298.92 240.99 297.577 242.646 297.577H249.766M274.502 300.388V300.388C274.502 298.836 273.244 297.577 271.691 297.577H262.696M263.258 311.07H271.691C273.244 311.07 274.502 309.811 274.502 308.259V308.259M258.761 297.577H257.074" stroke="black" stroke-width="3" stroke-linecap="round"/>
<circle cx="255.947" cy="255.418" r="35.4181" fill="white"/>
<ellipse cx="253.138" cy="256.545" rx="31.4828" ry="32.045" fill="#AAAAAA"/>
<path d="M262.541 220.614C265.241 221.122 267.832 221.937 270.278 223.02M276.745 226.747C276.377 226.479 276.003 226.219 275.624 225.965M281.076 230.459C287.436 236.862 291.365 245.681 291.365 255.419C291.365 274.98 275.508 290.837 255.947 290.837C236.386 290.837 220.529 274.98 220.529 255.419C220.529 238.446 232.468 224.262 248.406 220.805" stroke="black" stroke-width="3" stroke-linecap="round"/>
<line x1="239.27" y1="302.458" x2="231.026" y2="302.458" stroke="black" stroke-width="3" stroke-linecap="round"/>
<rect x="231.266" y="289.965" width="27.0373" height="11.2655" rx="2.62069" transform="rotate(90 231.266 289.965)" fill="#D9D9D9"/>
<path d="M220 293.344L220 292.585C220 291.138 221.173 289.965 222.621 289.965L228.645 289.965C230.092 289.965 231.266 291.138 231.266 292.585L231.266 314.381C231.266 315.829 230.092 317.002 228.645 317.002L222.621 317.002C221.173 317.002 220 315.829 220 314.381L220 304.61M220 297.85L220 298.977" stroke="black" stroke-width="3" stroke-linecap="round"/>
<line x1="256.888" y1="221.5" x2="256.888" y2="224.122" stroke="black" stroke-width="3" stroke-linecap="round"/>
<path d="M285.182 253.172H287.431" stroke="black" stroke-width="3" stroke-linecap="round"/>
<line x1="277.095" y1="233.856" x2="280.257" y2="231.1" stroke="black" stroke-width="3" stroke-linecap="round"/>
<path d="M283.495 273.973L273.937 267.789" stroke="black" stroke-width="3" stroke-linecap="round"/>
<path d="M227.278 272.847L236.836 266.663" stroke="black" stroke-width="3" stroke-linecap="round"/>
<line x1="1.5" y1="-1.5" x2="4.12339" y2="-1.5" transform="matrix(-0.707107 -0.707107 -0.707107 0.707107 234.991 235.973)" stroke="black" stroke-width="3" stroke-linecap="round"/>
<line x1="222.031" y1="253.353" x2="224.653" y2="253.353" stroke="black" stroke-width="3" stroke-linecap="round"/>
<path fill-rule="evenodd" clip-rule="evenodd" d="M258.778 250.861L256.862 233.317L254.946 250.86C252.591 251.658 250.897 253.887 250.897 256.511C250.897 258.673 252.048 260.567 253.771 261.613L252.844 270.098H260.88L259.953 261.613C261.675 260.567 262.826 258.673 262.826 256.511C262.826 253.887 261.132 251.659 258.778 250.861Z" fill="white"/>
<path d="M256.862 233.317L258.353 233.154L255.371 233.154L256.862 233.317ZM258.778 250.861L257.287 251.024L257.391 251.974L258.296 252.281L258.778 250.861ZM254.946 250.86L255.427 252.281L256.333 251.974L256.437 251.023L254.946 250.86ZM253.771 261.613L255.262 261.776L255.366 260.826L254.549 260.331L253.771 261.613ZM252.844 270.098L251.353 269.935L251.172 271.598H252.844V270.098ZM260.88 270.098V271.598H262.552L262.371 269.935L260.88 270.098ZM259.953 261.613L259.174 260.33L258.358 260.826L258.462 261.775L259.953 261.613ZM255.371 233.48L257.287 251.024L260.269 250.698L258.353 233.154L255.371 233.48ZM256.437 251.023L258.353 233.48L255.371 233.154L253.455 250.697L256.437 251.023ZM252.397 256.511C252.397 254.549 253.663 252.879 255.427 252.281L254.464 249.44C251.52 250.438 249.397 253.224 249.397 256.511H252.397ZM254.549 260.331C253.256 259.546 252.397 258.128 252.397 256.511H249.397C249.397 259.219 250.84 261.589 252.993 262.895L254.549 260.331ZM254.336 270.261L255.262 261.776L252.28 261.45L251.353 269.935L254.336 270.261ZM260.88 268.598H252.844V271.598H260.88V268.598ZM258.462 261.775L259.388 270.261L262.371 269.935L261.444 261.45L258.462 261.775ZM261.326 256.511C261.326 258.127 260.467 259.545 259.174 260.33L260.731 262.895C262.883 261.588 264.326 259.219 264.326 256.511H261.326ZM258.296 252.281C260.06 252.879 261.326 254.549 261.326 256.511H264.326C264.326 253.225 262.204 250.439 259.26 249.44L258.296 252.281Z" fill="black"/>
</svg>
