<svg width="360" height="332" viewBox="0 0 360 332" fill="none" xmlns="http://www.w3.org/2000/svg">
<path d="M34.5101 142.395C50.7596 106.103 -9.72261 80.7004 34.5101 30.362C78.7429 -19.9765 147.922 5.18507 189.213 15.2096C230.504 25.2341 306.665 -15.8851 345.017 47.1624C383.369 110.21 341.293 224.991 295.208 264.915C249.123 304.839 204.8 313.854 157.453 306.336C110.106 298.818 67.7889 277.89 46.2493 242.957C24.7097 208.024 18.2607 178.687 34.5101 142.395Z" fill="#F4F4F4"/>
<ellipse cx="149.338" cy="311.949" rx="149.338" ry="20.0512" fill="#D9D9D9"/>
<path d="M64 61.9502H303V289.751C303 300.797 294.046 309.751 283 309.751H84C72.9543 309.751 64 300.797 64 289.751V61.9502Z" fill="#AAAAAA"/>
<path d="M64 63.1377V161.217M303 289.178V289.752C303 300.798 294.046 309.752 283 309.752H213.842M303 283.156V278.64M303 272.618V62.9502M64 168.242V171.253M64 177.275V186.307M64 195.842V289.752C64 300.798 72.9543 309.752 84 309.752H123.75" stroke="black" stroke-width="3" stroke-linecap="round"/>
<path d="M60.5847 62.3413C60.5394 62.3413 60.4992 62.3811 60.4851 62.4399L53.2017 105.242L53.2017 125.503C53.201 142.519 58.0378 154.67 70.1891 154.67C79.1247 154.67 89.6817 149.575 91.0028 137.883C94.9005 150.036 100.635 154.67 110.977 154.67C121.928 154.67 132.313 151.193 135.804 137.883C139.142 151.168 147.309 154.67 158.173 154.67C169.435 154.67 178.998 151.928 182.006 137.883C184.846 151.898 194.199 154.67 205.37 154.67C216.003 154.67 224.911 150.866 228.207 137.883C231.655 150.892 240.913 154.67 251.633 154.67C263.7 154.67 274.076 150.76 276.275 135.163C276.275 148.635 283.953 154.67 293.822 154.67C305.973 154.67 310.81 140.481 310.81 125.503V105.708L303.526 62.4399C303.512 62.3811 303.472 62.3413 303.427 62.3413H60.5847Z" fill="white"/>
<path d="M60.5847 62.3413C60.5394 62.3413 60.4992 62.3811 60.4851 62.4399L53.2017 105.242L53.2017 125.503C53.201 142.519 58.0378 154.67 70.1891 154.67C79.1247 154.67 89.3285 148.516 90.6496 136.823C94.5473 148.977 102.502 154.67 112.843 154.67C123.795 154.67 132.183 149.81 135.674 136.5C139.012 149.784 148.243 154.67 159.107 154.67C170.368 154.67 178.941 150.939 181.948 136.893C184.789 150.908 194.199 154.67 205.37 154.67C216.003 154.67 225.974 150.944 228.336 137.961C230.851 150.969 240.913 154.67 251.633 154.67C261.834 154.67 273.752 153.147 275.952 137.55C275.952 151.022 283.953 154.67 293.822 154.67C305.974 154.67 310.81 140.481 310.81 125.503V105.708L303.526 62.4399C303.512 62.3811 303.472 62.3413 303.427 62.3413" stroke="black" stroke-width="3"/>
<path d="M70.3368 105.189H91.0033M96.1368 105.189H98.0035M103.604 105.189L129.271 105.189M140.938 105.189L300.077 105.189" stroke="#1A1918" stroke-width="3" stroke-linecap="round"/>
<rect x="41.0684" y="49.2847" width="285.609" height="13.0566" rx="6.5283" fill="#D9D9D9"/>
<path d="M303.343 62.3413H320.149C323.754 62.3413 326.677 59.4184 326.677 55.813V55.813C326.677 52.2075 323.754 49.2847 320.149 49.2847H47.5967C43.9912 49.2847 41.0684 52.2075 41.0684 55.813V55.813C41.0684 59.4184 43.9912 62.3413 47.5967 62.3413H90.0699M299.143 62.3413H292.609M280.476 62.3413H262.742M95.2034 62.3413H106.404" stroke="black" stroke-width="3" stroke-linecap="round"/>
<rect x="106.402" y="18.5088" width="155.871" height="50.3611" rx="5" fill="#F4F4F4"/>
<path d="M262.274 55.347V23.5088C262.274 20.7474 260.035 18.5088 257.274 18.5088H111.402C108.641 18.5088 106.402 20.7474 106.402 23.5088V63.8484C106.402 66.6182 108.654 68.8602 111.424 68.8483L214.672 68.4036M262.274 63.2743V63.4036C262.274 66.1651 260.035 68.4036 257.274 68.4036H237.073M230.073 68.4036H223.539" stroke="black" stroke-width="3" stroke-linecap="round"/>
<path d="M222.141 208.166C222.141 205.405 224.379 203.166 227.141 203.166H266.609C269.37 203.166 271.609 205.405 271.609 208.166V305.686C271.609 306.238 271.161 306.686 270.609 306.686H223.141C222.588 306.686 222.141 306.238 222.141 305.686V208.166Z" fill="white"/>
<path d="M217.473 306.686V202.57C217.473 199.808 219.711 197.57 222.473 197.57H271.274C274.036 197.57 276.274 199.808 276.274 202.57V211.209M276.274 306.686V222.75M276.274 215.289V217.621" stroke="black" stroke-width="3" stroke-linecap="round"/>
<path d="M271.609 203.166H228.074C225.313 203.166 223.074 205.405 223.074 208.166V256.325" stroke="black" stroke-width="3" stroke-linecap="round"/>
<path d="M217.473 271.584C217.473 268.823 219.711 266.584 222.473 266.584H271.274C274.036 266.584 276.274 268.823 276.274 271.584V272.775C276.274 275.537 274.036 277.775 271.274 277.775H222.473C219.711 277.775 217.473 275.537 217.473 272.775V271.584Z" fill="#D9D9D9"/>
<path d="M253.407 266.584H222.473C219.711 266.584 217.473 268.823 217.473 271.584V272.775C217.473 275.537 219.711 277.775 222.473 277.775H271.274C274.036 277.775 276.274 275.537 276.274 272.775V271.584C276.274 268.823 274.036 266.584 271.274 266.584H268.924M264.607 266.584H261.807" stroke="black" stroke-width="3" stroke-linecap="round"/>
<rect x="85.8711" y="170.524" width="118.537" height="110.981" rx="5" fill="white"/>
<path d="M85.8711 254.46V175.524C85.8711 172.763 88.1097 170.524 90.8711 170.524H199.408C202.17 170.524 204.408 172.763 204.408 175.524V220.461M204.408 227.414V237.673M204.408 246.532V276.505C204.408 279.267 202.17 281.505 199.408 281.505H194.141" stroke="black" stroke-width="3" stroke-linecap="round"/>
<rect x="79.3359" y="281.774" width="132.537" height="27.9784" rx="5" fill="#F4F4F4"/>
<path d="M176.872 309.752H98.9365H84.3359C81.5745 309.752 79.3359 307.514 79.3359 304.752V286.774C79.3359 284.012 81.5745 281.774 84.3359 281.774H95.9031M183.873 309.752H189.006M194.139 309.752H206.873C209.635 309.752 211.873 307.514 211.873 304.752V293.186V286.774C211.873 284.013 209.635 281.774 206.873 281.774H127.404M112.47 281.774H101.387" stroke="black" stroke-width="3" stroke-linecap="round"/>
<line x1="1.5" y1="-1.5" x2="53.6563" y2="-1.5" transform="matrix(0.70739 -0.706823 0.70739 0.706823 149.684 234.467)" stroke="black" stroke-width="3" stroke-linecap="round"/>
<line x1="1.5" y1="-1.5" x2="82.8274" y2="-1.5" transform="matrix(0.70739 -0.706823 0.70739 0.706823 105.395 257.192)" stroke="black" stroke-width="3" stroke-linecap="round"/>
<line x1="1.5" y1="-1.5" x2="14.8979" y2="-1.5" transform="matrix(0.70739 -0.706824 0.70739 0.706824 134.922 250.271)" stroke="black" stroke-width="3" stroke-linecap="round"/>
</svg>
