<svg width="291" height="336" viewBox="0 0 291 336" fill="none" xmlns="http://www.w3.org/2000/svg">
<path d="M197.457 287.457C222.469 237.735 291 250.55 291 163.921C291 77.2921 253.484 46.5378 190.454 25.0078C127.424 3.47784 51.8884 -18.563 25.3766 61.9147C-1.13513 142.392 72.181 129.405 33.8817 194.164C-4.4176 258.923 -11.6403 268.491 19.3741 311.549C50.3885 354.607 172.445 337.179 197.457 287.457Z" fill="#F4F4F4"/>
<path d="M83.8439 230.655L43.9278 175.982C43.5669 175.488 42.8044 175.951 43.0759 176.499L61.0448 212.792C61.6132 213.94 60.7779 215.286 59.4968 215.286H32.7568C31.2197 215.286 30.4482 217.143 31.5329 218.232L94.3405 281.304C94.7735 281.739 95.4579 281.162 95.1022 280.661L62.4343 234.715C61.5859 233.522 62.5139 231.88 63.9739 231.992L82.3171 233.395C83.7872 233.508 84.7133 231.846 83.8439 230.655Z" fill="#AAAAAA"/>
<path d="M52.8665 198.665L60.9165 213.687C61.5332 214.837 60.6996 216.23 59.3941 216.23H32.7568C31.2197 216.23 30.4482 218.087 31.5328 219.176L46.0997 233.804M71.5338 250.154L98.6013 286.526L59.8668 247.32M53.7999 241.651L49.4248 237.258M73.176 232.695L82.5435 233.412C83.9194 233.517 84.7816 231.938 83.9616 230.815L78.4229 223.229L49.9704 184.258" stroke="black" stroke-width="3" stroke-linecap="round"/>
<rect x="143.32" y="285.098" width="29.5529" height="28.845" rx="5" fill="#F4F4F4"/>
<rect x="111.657" y="247.707" width="93.9361" height="45.9383" rx="10" fill="white"/>
<path d="M143.32 293.645V308.943C143.32 311.705 145.559 313.943 148.32 313.943H167.873C170.634 313.943 172.873 311.705 172.873 308.943V306.465" stroke="black" stroke-width="3" stroke-linecap="round"/>
<path d="M122.74 247.707H121.657C116.134 247.707 111.657 252.184 111.657 257.707V283.645C111.657 289.168 116.134 293.645 121.657 293.645H142.793M149.654 293.645H159.153M175.513 293.645H195.593C201.116 293.645 205.593 289.168 205.593 283.645V280.024M121.684 274.949H163.903M171.819 274.949H177.624M191.872 247.707H195.593C201.116 247.707 205.593 252.184 205.593 257.707V266.402M185.54 247.707H169.708M141.738 247.707H149.654M205.593 275.35V273.547" stroke="black" stroke-width="3" stroke-linecap="round"/>
<path fill-rule="evenodd" clip-rule="evenodd" d="M198.499 204.606C223.487 190.803 240.424 164.088 240.424 133.394C240.424 88.5527 204.274 52.2012 159.681 52.2012C115.088 52.2012 78.9382 88.5527 78.9382 133.394C78.9382 164.559 96.3986 191.622 122.019 205.232L129.925 246.844C130.373 249.203 132.435 250.911 134.837 250.911H185.562C187.964 250.911 190.026 249.203 190.474 246.844L198.499 204.606Z" fill="white"/>
<path fill-rule="evenodd" clip-rule="evenodd" d="M191.377 198.868C212.589 184.758 226.704 159.652 226.704 131.031C226.704 86.9046 193.153 51.1328 151.766 51.1328C110.379 51.1328 76.8281 86.9046 76.8281 131.031C76.8281 163.193 94.6512 190.917 120.341 203.586L127.317 242.52C127.745 244.903 129.818 246.638 132.239 246.638H178.634C181.055 246.638 183.128 244.903 183.556 242.52L191.371 198.903C191.373 198.892 191.375 198.88 191.377 198.868Z" fill="#D9D9D9"/>
<path d="M204.024 137.082C204.024 156.188 184.258 171.677 159.875 171.677C135.492 171.677 115.726 156.188 115.726 137.082C115.726 117.975 135.492 102.487 159.875 102.487C184.258 102.487 204.024 117.975 204.024 137.082Z" fill="#F4F4F4"/>
<path d="M132.889 247.707C130.366 247.707 128.196 245.899 127.71 243.393L119.697 202.027C93.5752 188.417 75.7729 161.354 75.7729 130.19C75.7729 85.3481 112.632 48.9966 158.099 48.9966C175.507 48.9966 191.653 54.3253 204.952 63.4191M184.364 247.707C186.887 247.707 189.057 245.899 189.543 243.393L197.677 201.402C223.156 187.599 240.425 160.884 240.425 130.19C240.425 120.233 238.608 110.694 235.282 101.879M230.327 91.1957C230.942 92.3014 231.531 93.4228 232.095 94.5591M224.593 82.3085C220.628 76.9622 216.017 72.112 210.872 67.8699" stroke="black" stroke-width="3" stroke-linecap="round"/>
<line x1="1.5" y1="-1.5" x2="24.0631" y2="-1.5" transform="matrix(-0.495462 0.86863 -0.863381 -0.504552 218.26 21.2197)" stroke="black" stroke-width="3" stroke-linecap="round"/>
<line x1="282.498" y1="127.417" x2="260.167" y2="127.417" stroke="black" stroke-width="3" stroke-linecap="round"/>
<line x1="1.5" y1="-1.5" x2="24.0631" y2="-1.5" transform="matrix(0.495462 0.86863 0.863381 -0.504552 88.7375 23.3569)" stroke="black" stroke-width="3" stroke-linecap="round"/>
<line x1="1.5" y1="-1.5" x2="23.8311" y2="-1.5" transform="matrix(1 -8.74228e-08 -8.74228e-08 -1 23 128.053)" stroke="black" stroke-width="3" stroke-linecap="round"/>
<path d="M133.82 143.01C155.349 143.278 164.956 128.587 157.568 128.587C150.179 128.588 139.625 145.146 157.568 145.147C175.511 145.147 177.094 128.587 171.816 128.587C166.539 128.587 163.373 143.01 169.705 145.147C176.038 147.283 185.537 143.01 185.537 143.01" stroke="black" stroke-width="3" stroke-linecap="round"/>
<line x1="1.5" y1="-1.5" x2="120.386" y2="-1.5" transform="matrix(-0.190508 0.981686 -0.980802 -0.195007 196.094 125.917)" stroke="black" stroke-width="3" stroke-linecap="round"/>
<line x1="1.5" y1="-1.5" x2="120.386" y2="-1.5" transform="matrix(0.190508 0.981686 0.980802 -0.195007 125.379 125.917)" stroke="black" stroke-width="3" stroke-linecap="round"/>
</svg>
