<svg width="24" height="24" viewBox="0 0 24 24" fill="none" xmlns="http://www.w3.org/2000/svg">
<path fill-rule="evenodd" clip-rule="evenodd" d="M19.2929 11.2929C19.4804 11.1054 19.7348 11 20 11C20.2652 11 20.5196 11.1054 20.7071 11.2929C20.8946 11.4804 21 11.7348 21 12V18C21 18.7956 20.6839 19.5587 20.1213 20.1213C19.5587 20.6839 18.7956 21 18 21H6C5.20435 21 4.44129 20.6839 3.87868 20.1213C3.31607 19.5587 3 18.7956 3 18V6C3 5.20435 3.31607 4.44129 3.87868 3.87868C4.44129 3.31607 5.20435 3 6 3H12C12.2652 3 12.5196 3.10536 12.7071 3.29289C12.8946 3.48043 13 3.73478 13 4C13 4.26522 12.8946 4.51957 12.7071 4.70711C12.5196 4.89464 12.2652 5 12 5H6C5.73478 5 5.48043 5.10536 5.29289 5.29289C5.10536 5.48043 5 5.73478 5 6V18C5 18.2652 5.10536 18.5196 5.29289 18.7071C5.48043 18.8946 5.73478 19 6 19H18C18.2652 19 18.5196 18.8946 18.7071 18.7071C18.8946 18.5196 19 18.2652 19 18V12C19 11.7348 19.1054 11.4804 19.2929 11.2929ZM17.58 5H16C15.7348 5 15.4804 4.89464 15.2929 4.70711C15.1054 4.51957 15 4.26522 15 4C15 3.73478 15.1054 3.48043 15.2929 3.29289C15.4804 3.10536 15.7348 3 16 3H20C20.2652 3 20.5196 3.10536 20.7071 3.29289C20.8946 3.48043 21 3.73478 21 4V8C21 8.26522 20.8946 8.51957 20.7071 8.70711C20.5196 8.89464 20.2652 9 20 9C19.7348 9 19.4804 8.89464 19.2929 8.70711C19.1054 8.51957 19 8.26522 19 8V6.42L12.71 12.7C12.617 12.7937 12.5064 12.8681 12.3846 12.9189C12.2627 12.9697 12.132 12.9958 12 12.9958C11.868 12.9958 11.7373 12.9697 11.6154 12.9189C11.4936 12.8681 11.383 12.7937 11.29 12.7C11.1963 12.607 11.1219 12.4964 11.0711 12.3746C11.0203 12.2527 10.9942 12.122 10.9942 11.99C10.9942 11.858 11.0203 11.7273 11.0711 11.6054C11.1219 11.4836 11.1963 11.373 11.29 11.28L17.58 5Z" fill="#004CAC"/>
</svg>
