<svg width="24" height="24" viewBox="0 0 24 24" fill="none" xmlns="http://www.w3.org/2000/svg">
<path fill-rule="evenodd" clip-rule="evenodd" d="M4.71006 3.28994C4.61682 3.1967 4.50613 3.12274 4.38431 3.07228C4.26249 3.02182 4.13192 2.99585 4.00006 2.99585C3.8682 2.99585 3.73764 3.02182 3.61581 3.07228C3.49399 3.12274 3.3833 3.1967 3.29006 3.28994C3.10176 3.47825 2.99597 3.73364 2.99597 3.99994C2.99597 4.26624 3.10176 4.52164 3.29006 4.70994L8.92006 10.3399C8.56387 11.0026 8.43065 11.7623 8.54015 12.5066C8.64966 13.2509 8.99605 13.9401 9.528 14.472C10.0599 15.004 10.7491 15.3503 11.4934 15.4599C12.2377 15.5694 12.9974 15.4361 13.6601 15.0799L19.2901 20.7099C19.383 20.8037 19.4936 20.8781 19.6155 20.9288C19.7373 20.9796 19.8681 21.0057 20.0001 21.0057C20.1321 21.0057 20.2628 20.9796 20.3846 20.9288C20.5065 20.8781 20.6171 20.8037 20.7101 20.7099C20.8038 20.617 20.8782 20.5064 20.929 20.3845C20.9797 20.2627 21.0059 20.132 21.0059 19.9999C21.0059 19.8679 20.9797 19.7372 20.929 19.6154C20.8782 19.4935 20.8038 19.3829 20.7101 19.2899L4.71006 3.28994ZM12.0001 13.4999C11.6022 13.4999 11.2207 13.3419 10.9394 13.0606C10.6581 12.7793 10.5001 12.3978 10.5001 11.9999V11.9299L12.0601 13.4899L12.0001 13.4999ZM12.2201 16.9999C7.92007 17.0999 5.10007 13.4099 4.22007 11.9999C4.84654 11.0006 5.59943 10.0864 6.46007 9.27993L5.00007 7.86993C3.87139 8.9334 2.90448 10.1564 2.13007 11.4999C2.0423 11.652 1.99609 11.8244 1.99609 11.9999C1.99609 12.1755 2.0423 12.3479 2.13007 12.4999C2.76007 13.5899 6.13007 18.9999 12.0201 18.9999H12.2701C13.3776 18.9671 14.4708 18.7403 15.5001 18.3299L13.9201 16.7499C13.3644 16.8961 12.7943 16.98 12.2201 16.9999ZM11.7301 4.99993C17.7001 4.81993 21.2301 10.3899 21.8701 11.4999C21.964 11.6484 22.0171 11.819 22.0242 11.9946C22.0312 12.1701 21.9918 12.3444 21.9101 12.4999C21.1234 13.8462 20.1429 15.0693 19.0001 16.1299L17.4901 14.7199C18.3683 13.9166 19.1381 13.0022 19.7801 11.9999C18.8901 10.5899 16.0701 6.88993 11.7801 6.99993C11.2059 7.01991 10.6357 7.10376 10.0801 7.24993L8.50006 5.66993C9.5293 5.25955 10.6225 5.03279 11.7301 4.99993Z" fill="#004CAC"/>
</svg>
