<svg width="24" height="24" viewBox="0 0 24 24" fill="none" xmlns="http://www.w3.org/2000/svg">
<path fill-rule="evenodd" clip-rule="evenodd" d="M12 22C13.9778 22 15.9112 21.4135 17.5557 20.3147C19.2002 19.2159 20.4819 17.6541 21.2388 15.8268C21.9957 13.9996 22.1937 11.9889 21.8079 10.0491C21.422 8.10929 20.4696 6.32746 19.0711 4.92894C17.6725 3.53041 15.8907 2.578 13.9509 2.19215C12.0111 1.8063 10.0004 2.00433 8.17316 2.76121C6.3459 3.51809 4.78412 4.79981 3.6853 6.4443C2.58649 8.08879 2 10.0222 2 12C2 13.3132 2.25866 14.6136 2.7612 15.8268C3.26375 17.0401 4.00035 18.1425 4.92893 19.0711C5.85752 19.9997 6.95991 20.7363 8.17316 21.2388C9.38642 21.7413 10.6868 22 12 22ZM12 4.00001C13.5822 4.00001 15.129 4.4692 16.4446 5.34825C17.7602 6.2273 18.7855 7.47673 19.391 8.93854C19.9965 10.4003 20.155 12.0089 19.8463 13.5607C19.5376 15.1126 18.7757 16.538 17.6569 17.6569C16.538 18.7757 15.1126 19.5376 13.5607 19.8463C12.0089 20.155 10.4003 19.9965 8.93853 19.391C7.47672 18.7855 6.22729 17.7602 5.34824 16.4446C4.46919 15.129 4 13.5823 4 12C4 9.87827 4.84285 7.84344 6.34314 6.34315C7.84344 4.84286 9.87827 4.00001 12 4.00001ZM12 7C11.4477 7 11 7.44772 11 8C11 8.55229 11.4477 9 12 9C12.5523 9 13 8.55229 13 8C13 7.44772 12.5523 7 12 7ZM12.7071 16.749C12.5196 16.9097 12.2652 17 12 17C11.7348 17 11.4804 16.9097 11.2929 16.749C11.1054 16.5882 11 16.3702 11 16.1429V11.8571C11 11.6298 11.1054 11.4118 11.2929 11.2511C11.4804 11.0903 11.7348 11 12 11C12.2652 11 12.5196 11.0903 12.7071 11.2511C12.8946 11.4118 13 11.6298 13 11.8571V16.1429C13 16.3702 12.8946 16.5882 12.7071 16.749Z" fill="#004CAC"/>
</svg>
