<svg width="24" height="24" viewBox="0 0 24 24" fill="none" xmlns="http://www.w3.org/2000/svg">
<path fill-rule="evenodd" clip-rule="evenodd" d="M11.2929 2.29289C11.4804 2.10536 11.7348 2 12 2C12.2652 2 12.5196 2.10536 12.7071 2.29289C12.8946 2.48043 13 2.73478 13 3V5C13 5.26522 12.8946 5.51957 12.7071 5.70711C12.5196 5.89464 12.2652 6 12 6C11.7348 6 11.4804 5.89464 11.2929 5.70711C11.1054 5.51957 11 5.26522 11 5V3C11 2.73478 11.1054 2.48043 11.2929 2.29289ZM19 11H21C21.2652 11 21.5196 11.1054 21.7071 11.2929C21.8946 11.4804 22 11.7348 22 12C22 12.2652 21.8946 12.5196 21.7071 12.7071C21.5196 12.8946 21.2652 13 21 13H19C18.7348 13 18.4804 12.8946 18.2929 12.7071C18.1054 12.5196 18 12.2652 18 12C18 11.7348 18.1054 11.4804 18.2929 11.2929C18.4804 11.1054 18.7348 11 19 11ZM6 12C6 11.7348 5.89464 11.4804 5.70711 11.2929C5.51957 11.1054 5.26522 11 5 11H3C2.73478 11 2.48043 11.1054 2.29289 11.2929C2.10536 11.4804 2 11.7348 2 12C2 12.2652 2.10536 12.5196 2.29289 12.7071C2.48043 12.8946 2.73478 13 3 13H5C5.26522 13 5.51957 12.8946 5.70711 12.7071C5.89464 12.5196 6 12.2652 6 12ZM5.49672 4.72383C5.76489 4.71633 6.02507 4.81567 6.22 4.99999L7.72 6.41999C7.90625 6.60736 8.01079 6.86081 8.01079 7.12499C8.01079 7.38918 7.90625 7.64263 7.72 7.82999C7.62706 7.9275 7.51537 8.00521 7.39164 8.05848C7.26792 8.11175 7.13471 8.13948 7 8.13999C6.86575 8.14475 6.73193 8.1224 6.6065 8.07429C6.48108 8.02619 6.36664 7.9533 6.27 7.85999L4.83 6.46999C4.63507 6.28567 4.52134 6.03145 4.51384 5.76328C4.50634 5.4951 4.60568 5.23493 4.79 5.03999C4.97433 4.84506 5.22854 4.73133 5.49672 4.72383ZM17 8.14001C17.2575 8.13898 17.5046 8.03869 17.69 7.86001L19.13 6.47001C19.3057 6.28646 19.4049 6.04293 19.4075 5.78888C19.4101 5.53482 19.3159 5.2893 19.1441 5.10218C18.9722 4.91505 18.7356 4.80035 18.4822 4.78137C18.2289 4.7624 17.9778 4.84057 17.78 5.00001L16.34 6.42001C16.1538 6.60737 16.0492 6.86082 16.0492 7.12501C16.0492 7.38919 16.1538 7.64264 16.34 7.83001C16.5131 8.01273 16.7488 8.12343 17 8.14001ZM11.2929 18.2929C11.4804 18.1054 11.7348 18 12 18C12.2652 18 12.5196 18.1054 12.7071 18.2929C12.8946 18.4804 13 18.7348 13 19V21C13 21.2652 12.8946 21.5196 12.7071 21.7071C12.5196 21.8946 12.2652 22 12 22C11.7348 22 11.4804 21.8946 11.2929 21.7071C11.1054 21.5196 11 21.2652 11 21V19C11 18.7348 11.1054 18.4804 11.2929 18.2929ZM17.73 16.14C17.539 15.9557 17.2827 15.8548 17.0173 15.8594C16.752 15.8641 16.4993 15.974 16.315 16.165C16.1307 16.356 16.0298 16.6123 16.0344 16.8777C16.0391 17.143 16.149 17.3957 16.34 17.58L17.78 19C17.9654 19.1787 18.2125 19.279 18.47 19.28C18.604 19.2808 18.7368 19.2546 18.8605 19.2031C18.9841 19.1516 19.0962 19.0757 19.19 18.98C19.2837 18.887 19.3581 18.7764 19.4089 18.6546C19.4597 18.5327 19.4858 18.402 19.4858 18.27C19.4858 18.138 19.4597 18.0073 19.4089 17.8854C19.3581 17.7636 19.2837 17.653 19.19 17.56L17.73 16.14ZM4.83 17.53L6.27 16.14V16.17C6.46096 15.9857 6.71731 15.8848 6.98268 15.8894C7.24804 15.8941 7.50068 16.004 7.685 16.195C7.86933 16.386 7.97025 16.6423 7.96556 16.9077C7.96087 17.173 7.85096 17.4257 7.66 17.61L6.22 19C6.03512 19.1631 5.79652 19.2521 5.55 19.25C5.41601 19.2508 5.28323 19.2246 5.15954 19.1731C5.03586 19.1216 4.92379 19.0457 4.83 18.95C4.73627 18.857 4.66188 18.7464 4.61111 18.6246C4.56034 18.5027 4.5342 18.372 4.5342 18.24C4.5342 18.108 4.56034 17.9773 4.61111 17.8554C4.66188 17.7336 4.73627 17.623 4.83 17.53Z" fill="#004CAC"/>
</svg>
