<svg width="24" height="24" viewBox="0 0 24 24" fill="none" xmlns="http://www.w3.org/2000/svg">
<path fill-rule="evenodd" clip-rule="evenodd" d="M17.6237 13.0948L17.6134 13.0682C17.3677 12.4296 16.95 11.8908 16.3431 11.3146C16.0343 11.0216 15.6988 10.7389 15.3171 10.4215C15.2844 10.3943 15.2512 10.3667 15.2176 10.3389C14.8757 10.0549 14.4928 9.73689 14.1286 9.40296C13.3209 8.66258 12.4447 7.70522 11.9246 6.37408C11.788 6.02451 11.6812 5.66289 11.6048 5.28814C11.1762 5.82306 10.8227 6.41148 10.5646 7.04478C9.93922 8.57905 9.81052 10.5251 10.7335 12.8937C11.1883 14.0595 10.6958 15.1784 9.94922 15.7687C9.19344 16.3663 7.94568 16.5932 6.90823 15.801C6.60834 15.5736 6.34024 15.3349 6.10088 15.0878C6.40997 16.7737 7.25076 17.8666 8.1617 18.5975C9.28181 19.4963 10.5315 19.8568 11.065 19.9262C13.1264 20.1888 15.0882 19.7707 16.4047 18.5691C17.8971 17.1805 18.4145 14.9871 17.6347 13.1211L17.6237 13.0948ZM17.76 20.0399C15.87 21.7699 13.24 22.2199 10.81 21.9099C9.11 21.6899 4.38 19.9699 4 14.3699C4 13.2618 4.13237 12.3167 4.33828 11.5171C4.43995 11.1223 4.55954 10.763 4.68998 10.4369C4.85755 10.0181 5.04304 9.65426 5.23142 9.34091C5.23179 9.34028 5.23217 9.33966 5.23254 9.33904C5.27826 9.26304 5.32415 9.19001 5.37 9.1199C5.54842 8.85534 5.87447 8.84818 6.08498 9.00295C6.21663 9.09973 6.30309 9.25983 6.28 9.4599C6.27112 9.53818 6.26331 9.61819 6.2568 9.69973C6.25634 9.7055 6.25589 9.71127 6.25544 9.71706C6.22836 10.0671 6.22534 10.445 6.26342 10.8349C6.28811 11.0878 6.33009 11.3457 6.39399 11.6045C6.52079 12.1181 6.73395 12.6351 7.06978 13.1223C7.28388 13.4329 7.54784 13.7314 7.87107 14.0092C7.8715 14.0095 7.87194 14.0099 7.87237 14.0103C7.95133 14.0781 8.03383 14.1447 8.12 14.2099C8.51 14.5099 9.05 14.0799 8.87 13.6199C8.83635 13.5335 8.80382 13.4475 8.77242 13.3617C8.77129 13.3586 8.77015 13.3555 8.76902 13.3524C8.63988 12.999 8.52978 12.651 8.43774 12.3086C8.18967 11.3858 8.07284 10.5036 8.06843 9.66625C8.06843 9.66511 8.06842 9.66398 8.06842 9.66284C8.06649 9.26998 8.08931 8.88698 8.13493 8.51426C8.44199 6.00544 9.78204 3.96233 11.562 2.51358C11.6175 2.46846 11.6733 2.4239 11.7296 2.37993C11.9704 2.19184 12.2186 2.01437 12.4729 1.84783C12.4731 1.84772 12.4733 1.8476 12.4734 1.84749C12.6204 1.75129 12.7693 1.65874 12.92 1.5699C13.3 1.3399 13.77 1.6799 13.67 2.1199C13.6295 2.29788 13.5952 2.47073 13.5669 2.63869C13.5657 2.6461 13.5644 2.65351 13.5632 2.66091C13.5159 2.94578 13.4859 3.21656 13.4715 3.47451C13.4694 3.51295 13.4676 3.55111 13.4662 3.58899C13.3666 6.2009 14.905 7.47893 16.4998 8.80387C17.672 9.77775 18.8747 10.777 19.48 12.3499C20.6 15.0299 19.84 18.1099 17.76 20.0399Z" fill="#004CAC"/>
</svg>
