<svg width="24" height="24" viewBox="0 0 24 24" fill="none" xmlns="http://www.w3.org/2000/svg">
<path d="M12.0001 21.85C11.6506 21.8555 11.3058 21.7693 11.0001 21.6L10.7001 21.43C8.36335 20.108 6.41934 18.1895 5.06655 15.8704C3.71377 13.5514 3.00067 10.9148 3.00008 8.23003V8.09003C2.99691 7.73592 3.08782 7.38731 3.26351 7.07985C3.43921 6.77238 3.69339 6.51708 4.00008 6.34003L11.0001 2.40003C11.3041 2.22449 11.649 2.13208 12.0001 2.13208C12.3512 2.13208 12.696 2.22449 13.0001 2.40003L20.0001 6.34003C20.3068 6.51708 20.561 6.77238 20.7366 7.07985C20.9123 7.38731 21.0033 7.73592 21.0001 8.09003V8.23003C20.9975 10.9168 20.2814 13.5547 18.925 15.8739C17.5686 18.1932 15.6205 20.1106 13.2801 21.43L12.9801 21.6C12.6802 21.7659 12.3428 21.852 12.0001 21.85ZM12.0001 4.15003L5.00008 8.09003V8.23003C5.00176 10.5611 5.62308 12.8499 6.80038 14.8618C7.97769 16.8738 9.66866 18.5366 11.7001 19.68L12.0001 19.85L12.3001 19.68C14.3315 18.5366 16.0225 16.8738 17.1998 14.8618C18.3771 12.8499 18.9984 10.5611 19.0001 8.23003V8.09003L12.0001 4.15003Z" fill="#004CAC"/>
</svg>
