<svg width="24" height="24" viewBox="0 0 24 24" fill="none" xmlns="http://www.w3.org/2000/svg">
<path fill-rule="evenodd" clip-rule="evenodd" d="M11.7301 4.99987C17.7101 4.81987 21.2301 10.3899 21.8701 11.4999C21.9578 11.6519 22.004 11.8243 22.004 11.9999C22.004 12.1754 21.9578 12.3479 21.8701 12.4999C21.0101 13.9999 17.8001 18.8599 12.2701 18.9999H12.0201C6.13007 18.9999 2.76007 13.5899 2.13007 12.4999C2.0423 12.3479 1.99609 12.1754 1.99609 11.9999C1.99609 11.8243 2.0423 11.6519 2.13007 11.4999C3.00007 9.99987 6.20007 5.13987 11.7301 4.99987ZM4.22007 11.9999C5.10007 13.4099 7.91007 17.0999 12.2201 16.9999C16.2201 16.8999 18.8001 13.6099 19.8301 11.9999C18.9401 10.5899 16.1201 6.88987 11.8301 6.99987C7.83007 7.09987 5.22007 10.3899 4.22007 11.9999ZM10.0556 9.08973C10.6311 8.70515 11.3078 8.49988 12.0001 8.49988C12.9283 8.49988 13.8186 8.86863 14.4749 9.525C15.1313 10.1814 15.5001 11.0716 15.5001 11.9999C15.5001 12.6921 15.2948 13.3688 14.9102 13.9444C14.5256 14.5199 13.979 14.9685 13.3395 15.2335C12.6999 15.4984 11.9962 15.5677 11.3172 15.4326C10.6383 15.2976 10.0147 14.9642 9.52519 14.4748C9.03571 13.9853 8.70236 13.3616 8.56731 12.6827C8.43227 12.0038 8.50158 11.3 8.76648 10.6605C9.03139 10.0209 9.47999 9.47432 10.0556 9.08973ZM11.1667 13.2471C11.4134 13.4119 11.7034 13.4999 12.0001 13.4999C12.3979 13.4999 12.7794 13.3418 13.0607 13.0605C13.342 12.7792 13.5001 12.3977 13.5001 11.9999C13.5001 11.7032 13.4121 11.4132 13.2473 11.1665C13.0824 10.9198 12.8482 10.7276 12.5741 10.6141C12.3 10.5005 11.9984 10.4708 11.7074 10.5287C11.4165 10.5866 11.1492 10.7294 10.9394 10.9392C10.7296 11.149 10.5868 11.4163 10.5289 11.7072C10.471 11.9982 10.5007 12.2998 10.6142 12.5739C10.7278 12.848 10.92 13.0823 11.1667 13.2471Z" fill="#004CAC"/>
</svg>
